<?xml version="1.0" encoding="iso-8859-1"?>
<!-- Generator: Adobe Illustrator 17.1.0, SVG Export Plug-In . SVG Version: 6.00 Build 0)  -->
<!DOCTYPE svg PUBLIC "-//W3C//DTD SVG 1.1//EN" "http://www.w3.org/Graphics/SVG/1.1/DTD/svg11.dtd">
<svg version="1.1" id="Capa_1" xmlns="http://www.w3.org/2000/svg" xmlns:xlink="http://www.w3.org/1999/xlink" x="0px" y="0px"
	 viewBox="0 0 232.495 232.495" style="enable-background:new 0 0 232.495 232.495;" xml:space="preserve">
<path d="M135.172,168.451c-4.001,11.418-10.423,24.289-18.023,34.143c-16.931,21.952-42.817,34.061-49.904,28.596
	c-7.086-5.466,12.403-35.433,29.333-57.385c5.69-7.378,10.826-13.8,15.564-18.984L135.172,168.451z M185.986,60.409
	c-18.809-11.133-57.23-19.638-83.571-18.184c-0.135,0.265-0.278,0.528-0.43,0.786L80.835,78.744
	c-0.073,0.122-0.153,0.238-0.228,0.358c8.497,16.972,24.765,36.874,40.248,50.746l-6.984,11.799
	c-0.574,0.969-0.735,2.104-0.456,3.194c0.279,1.091,0.968,2.007,1.937,2.581l25.701,15.212c0.651,0.386,1.392,0.589,2.14,0.589
	c1.51,0,2.869-0.774,3.636-2.07l7.32-12.368c20.085,3.431,36.127-9.389,44.904-24.217C210.146,105.825,213.796,76.87,185.986,60.409
	z M93.908,33.484L78.59,6.277C76.377,2.347,72.362,0,67.849,0c-4.396,0-8.357,2.26-10.598,6.045L26.906,57.314
	c-2.269,3.832-2.318,8.438-0.134,12.319c2.186,3.882,6.15,6.228,10.602,6.277l31.222,0.337l0.052,0.001l0,0l0,0
	c1.658,0,3.213-0.887,4.058-2.315L93.856,38.2C94.712,36.755,94.731,34.947,93.908,33.484z"/>
<g>
</g>
<g>
</g>
<g>
</g>
<g>
</g>
<g>
</g>
<g>
</g>
<g>
</g>
<g>
</g>
<g>
</g>
<g>
</g>
<g>
</g>
<g>
</g>
<g>
</g>
<g>
</g>
<g>
</g>
</svg>
