<?xml version="1.0" encoding="utf-8"?>
<!-- Generator: Adobe Illustrator 21.0.2, SVG Export Plug-In . SVG Version: 6.00 Build 0)  -->
<svg version="1.1" id="Capa_1" xmlns="http://www.w3.org/2000/svg" xmlns:xlink="http://www.w3.org/1999/xlink" x="0px" y="0px"
	 viewBox="0 0 512 268" style="enable-background:new 0 0 512 268;" xml:space="preserve">
<g>
	<g>
		<path d="M504,208H8c-4.4,0-8,3.6-8,8s3.6,8,8,8h496c4.4,0,8-3.6,8-8S508.4,208,504,208z"/>
	</g>
</g>
<g>
	<g>
		<path d="M256,144c-4.4,0-8,3.6-8,8v64c0,4.4,3.6,8,8,8c4.4,0,8-3.6,8-8v-64C264,147.6,260.4,144,256,144z"/>
	</g>
</g>
<g>
	<g>
		<path d="M48,108.9c-4.4,0-8,3.6-8,8V216c0,4.4,3.6,8,8,8s8-3.6,8-8v-99.1C56,112.4,52.4,108.9,48,108.9z"/>
	</g>
</g>
<g>
	<g>
		<path d="M200,108.9c-4.4,0-8,3.6-8,8V216c0,4.4,3.6,8,8,8s8-3.6,8-8v-99.1C208,112.4,204.4,108.9,200,108.9z"/>
	</g>
</g>
<g>
	<g>
		<path d="M130.6,59.4c-2.5-3.6-7.5-4.5-11.1-2l-92,64c-3.6,2.5-4.5,7.5-2,11.1c1.6,2.2,4,3.4,6.6,3.4c1.6,0,3.2-0.5,4.6-1.4l92-64
			C132.2,68,133.1,63,130.6,59.4z"/>
	</g>
</g>
<g>
	<g>
		<path d="M220.6,121.4l-92-64c-3.6-2.5-8.6-1.6-11.1,2c-2.5,3.6-1.6,8.6,2,11.1l92,64c1.4,1,3,1.4,4.6,1.4c2.5,0,5-1.2,6.6-3.4
			C225.1,128.9,224.2,123.9,220.6,121.4z"/>
	</g>
</g>
<g>
	<g>
		<path d="M130.6,27.4c-2.5-3.6-7.5-4.5-11.1-2l-92,64c-3.6,2.5-4.5,7.5-2,11.1c1.6,2.2,4,3.4,6.6,3.4c1.6,0,3.2-0.5,4.6-1.4l92-64
			C132.2,36,133.1,31,130.6,27.4z"/>
	</g>
</g>
<g>
	<g>
		<path d="M220.6,89.4l-92-64c-3.6-2.5-8.6-1.6-11.1,2c-2.5,3.6-1.6,8.6,2,11.1l92,64c1.4,1,3,1.4,4.6,1.4c2.5,0,5-1.2,6.6-3.4
			C225.1,96.9,224.2,91.9,220.6,89.4z"/>
	</g>
</g>
<g>
	<g>
		<path d="M32,88c-4.4,0-8,3.6-8,8v32c0,4.4,3.6,8,8,8s8-3.6,8-8V96C40,91.6,36.4,88,32,88z"/>
	</g>
</g>
<g>
	<g>
		<path d="M216,88c-4.4,0-8,3.6-8,8v32c0,4.4,3.6,8,8,8s8-3.6,8-8V96C224,91.6,220.4,88,216,88z"/>
	</g>
</g>
<g>
	<g>
		<path d="M144,136h-40c-4.4,0-8,3.6-8,8v72c0,4.4,3.6,8,8,8h40c4.4,0,8-3.6,8-8v-72C152,139.6,148.4,136,144,136z M136,208h-24v-56
			h24V208z"/>
	</g>
</g>
<g>
	<g>
		<path d="M312,108.9c-4.4,0-8,3.6-8,8V216c0,4.4,3.6,8,8,8s8-3.6,8-8v-99.1C320,112.4,316.4,108.9,312,108.9z"/>
	</g>
</g>
<g>
	<g>
		<path d="M464,108.9c-4.4,0-8,3.6-8,8V216c0,4.4,3.6,8,8,8s8-3.6,8-8v-99.1C472,112.4,468.4,108.9,464,108.9z"/>
	</g>
</g>
<g>
	<g>
		<path d="M394.6,59.4c-2.5-3.6-7.5-4.5-11.1-2l-92,64c-3.6,2.5-4.5,7.5-2,11.1c1.6,2.2,4,3.4,6.6,3.4c1.6,0,3.2-0.5,4.6-1.4l92-64
			C396.2,68,397.1,63,394.6,59.4z"/>
	</g>
</g>
<g>
	<g>
		<path d="M484.6,121.4l-92-64c-3.6-2.5-8.6-1.6-11.1,2c-2.5,3.6-1.6,8.6,2,11.1l92,64c1.4,1,3,1.4,4.6,1.4c2.5,0,5-1.2,6.6-3.4
			C489.1,128.9,488.2,123.9,484.6,121.4z"/>
	</g>
</g>
<g>
	<g>
		<path d="M394.6,27.4c-2.5-3.6-7.5-4.5-11.1-2l-92,64c-3.6,2.5-4.5,7.5-2,11.1c1.6,2.2,4,3.4,6.6,3.4c1.6,0,3.2-0.5,4.6-1.4l92-64
			C396.2,36,397.1,31,394.6,27.4z"/>
	</g>
</g>
<g>
	<g>
		<path d="M484.6,89.4l-92-64c-3.6-2.5-8.6-1.6-11.1,2c-2.5,3.6-1.6,8.6,2,11.1l92,64c1.4,1,3,1.4,4.6,1.4c2.5,0,5-1.2,6.6-3.4
			C489.1,96.9,488.2,91.9,484.6,89.4z"/>
	</g>
</g>
<g>
	<g>
		<path d="M296,88c-4.4,0-8,3.6-8,8v32c0,4.4,3.6,8,8,8s8-3.6,8-8V96C304,91.6,300.4,88,296,88z"/>
	</g>
</g>
<g>
	<g>
		<path d="M480,88c-4.4,0-8,3.6-8,8v32c0,4.4,3.6,8,8,8s8-3.6,8-8V96C488,91.6,484.4,88,480,88z"/>
	</g>
</g>
<g>
	<g>
		<path d="M408,136h-40c-4.4,0-8,3.6-8,8v72c0,4.4,3.6,8,8,8h40c4.4,0,8-3.6,8-8v-72C416,139.6,412.4,136,408,136z M400,208h-24v-56
			h24V208z"/>
	</g>
</g>
</svg>
