<?xml version="1.0" encoding="iso-8859-1"?>
<!-- Generator: Adobe Illustrator 19.0.0, SVG Export Plug-In . SVG Version: 6.00 Build 0)  -->
<svg version="1.1" id="Layer_1" xmlns="http://www.w3.org/2000/svg" xmlns:xlink="http://www.w3.org/1999/xlink" x="0px" y="0px"
	 viewBox="0 0 512.981 512.981" style="enable-background:new 0 0 512.981 512.981;" xml:space="preserve">
<g>
	<g>
		<path d="M40.491,120.981v324h432v-324H40.491z M404.491,380.981c0,11.048-8.956,20-20,20h-260c-11.044,0-20-8.952-20-20v-160
			c0-11.048,8.956-20,20-20h260c11.044,0,20,8.952,20,20V380.981z M417.079,180.785c-6.616,0-12-3.416-12-10.032
			c0-4.272-3.472-5.772-7.744-5.772H125.159c-4.268,0-7.748,1.5-7.748,5.772c0,6.616-5.384,11.016-12,11.016
			c-6.616,0-12-3.908-12-10.524c0-17.5,14.244-30.264,31.748-30.264h272.18c17.504,0,31.744,12.272,31.744,29.772
			C429.079,177.373,423.699,180.785,417.079,180.785z"/>
	</g>
</g>
<g>
	<g>
		<path d="M440.491,13.209V0.981H81.331c-2.212,0-8.84-2.208-8.84,0v12.228c-16,0.8-32,15.516-32,33.54v58.232h432V46.745
			C472.491,28.733,456.491,14.033,440.491,13.209z M117.119,88.873c-15.452,0-28.032-12.576-28.032-28.032
			c0-4.824,1.228-9.372,3.384-13.336l37.984,37.984C126.487,87.645,121.943,88.873,117.119,88.873z M141.771,74.177l-37.988-37.988
			c3.968-2.152,8.512-3.384,13.336-3.384c15.452,0,28.032,12.576,28.032,28.036C145.151,65.665,143.923,70.209,141.771,74.177z
			 M213.239,88.873c-15.456,0-28.036-12.576-28.036-28.032c0.004-4.824,1.228-9.372,3.384-13.336l37.992,37.984
			C222.611,87.645,218.063,88.873,213.239,88.873z M237.895,74.177l-37.992-37.988c3.968-2.152,8.512-3.384,13.34-3.384
			c15.456,0,28.032,12.576,28.032,28.036C241.275,65.665,240.051,70.209,237.895,74.177z M308.451,88.873
			c-15.452,0-28.032-12.576-28.032-28.032c0-4.824,1.228-9.372,3.384-13.336l37.988,37.984
			C317.823,87.645,313.275,88.873,308.451,88.873z M333.103,74.177l-37.988-37.988c3.968-2.152,8.512-3.384,13.336-3.384
			c15.456,0,28.036,12.576,28.036,28.036C336.487,65.665,335.259,70.209,333.103,74.177z M404.571,88.873
			c-15.452,0-28.032-12.576-28.032-28.032c0.004-4.824,1.228-9.372,3.384-13.336l37.988,37.984
			C413.943,87.645,409.399,88.873,404.571,88.873z M429.227,74.177l-37.988-37.988c3.968-2.152,8.508-3.384,13.336-3.384
			c15.456,0,28.036,12.576,28.036,28.036C432.611,65.665,431.383,70.209,429.227,74.177z"/>
	</g>
</g>
<g>
	<g>
		<path d="M440.491,0.981h0.464C443.167,0.981,440.491-1.227,440.491,0.981z"/>
	</g>
</g>
<g>
	<g>
		<path d="M40.491,460.981v44c0,2.212,0,8,0,8h431.916c0,0,0.084-5.788,0.084-8v-44H40.491z"/>
	</g>
</g>
<g>
</g>
<g>
</g>
<g>
</g>
<g>
</g>
<g>
</g>
<g>
</g>
<g>
</g>
<g>
</g>
<g>
</g>
<g>
</g>
<g>
</g>
<g>
</g>
<g>
</g>
<g>
</g>
<g>
</g>
</svg>
