<?xml version="1.0" encoding="utf-8"?>
<!-- Generator: Adobe Illustrator 21.1.0, SVG Export Plug-In . SVG Version: 6.00 Build 0)  -->
<svg version="1.1" id="Capa_1" xmlns="http://www.w3.org/2000/svg" xmlns:xlink="http://www.w3.org/1999/xlink" x="0px" y="0px"
	 viewBox="0 0 512 512" style="enable-background:new 0 0 512 512;" xml:space="preserve">
<g>
	<path d="M160.8,169.5L42.6,51.2C57.9,35.9,73.1,20.7,88.4,5.4c7.1-7.1,18.5-7.2,25.6-0.2L206,97.4c7,7,7,18.6-0.1,25.7l-20.2,20.1
		L167,162C164.7,164.3,162.6,166.8,160.8,169.5z M258.1,362.2c-19.4-16.7-37.9-34.3-55.9-52.3c-18-18.1-35.6-36.6-52.3-56.1
		c-13.7-15.8-16.3-38.6-9.2-57.9L19.3,74.5c-28.2,29-24.6,101,6.3,164.3c13.3,27.4,30.5,52.1,48.3,75.5c17.8,23.3,37.3,45.3,57.8,66
		c20.6,20.7,42.5,40.3,65.9,58c23.5,17.9,48.2,35,75.4,48.2c63.3,30.9,135.4,34.3,164.4,6L316,371.3
		C296.8,378.4,273.9,375.8,258.1,362.2z M506.7,398l-92.1-92.1c-7.1-7-18.7-7-25.7,0.1h-0.1l-20.2,20.2l-18.7,18.7
		c-2.3,2.3-4.8,4.3-7.5,6.2l118.2,118.3c15.3-15.3,30.5-30.5,45.9-45.8C513.6,416.5,513.8,405.1,506.7,398z"/>
</g>
</svg>
