<?xml version="1.0" encoding="iso-8859-1"?>
<!-- Generator: Adobe Illustrator 19.0.0, SVG Export Plug-In . SVG Version: 6.00 Build 0)  -->
<svg version="1.1" id="Capa_1" xmlns="http://www.w3.org/2000/svg" xmlns:xlink="http://www.w3.org/1999/xlink" x="0px" y="0px"
	 viewBox="0 0 480 480" style="enable-background:new 0 0 480 480;" xml:space="preserve">
<g>
	<g>
		<path d="M457.432,384c4.295-7.269,6.563-15.557,6.568-24c-0.031-26.497-21.503-47.969-48-48h-3.072
			c-4.086,0.013-8.155,0.534-12.112,1.552c-17.135,4.282-34.73,6.448-52.392,6.448h-24.848c-17.821-0.012-35.574-2.218-52.856-6.568
			c-3.81-0.95-7.721-1.431-11.648-1.432H256c-5.46,0.019-10.875,0.994-16,2.88V240h-0.408
			c-3.012-44.656-30.604-83.933-71.592-101.912V80h-24V48h24V32h48c4.418,0,8,3.582,8,8v16h16V40c0-13.255-10.745-24-24-24h-48V0H72
			v48h24v32H72v58.088C31.012,156.067,3.42,195.344,0.408,240H0v216c0,13.255,10.745,24,24,24h192
			c7.068-0.027,13.764-3.167,18.304-8.584C243.194,477.024,253.489,480,264,480h144c27.813-0.033,51.387-20.473,55.36-48H480v-48
			H457.432z M231.264,339.79c1.634-1.963,3.501-3.719,5.56-5.23c5.501-4.229,12.238-6.533,19.176-6.56h3.072
			c2.778,0.01,5.544,0.37,8.232,1.072c18.404,4.597,37.302,6.924,56.272,6.928h24.848c19.129-0.013,38.184-2.377,56.736-7.04
			c2.538-0.637,5.144-0.959,7.76-0.96H416c17.673,0,32,14.327,32,32c0.007,9.226-4.02,17.994-11.024,24H235.312
			C221.986,372.91,220.174,353.116,231.264,339.79z M88,32V16h64v16H88z M128,48v32h-16V48H128z M88,96h64v32H88V96z M120,144
			c54.309,0.067,99.449,41.857,103.696,96H16.304C20.551,185.857,65.691,144.067,120,144z M16,256h208v68.408
			c-0.2,0.184-0.376,0.384-0.568,0.568c-0.576,0.528-1.104,1.08-1.648,1.6c-0.72,0.728-1.424,1.464-2.088,2.224
			c-0.504,0.584-0.984,1.184-1.456,1.784c-0.624,0.8-1.224,1.6-1.792,2.4c-0.432,0.629-0.851,1.267-1.256,1.912
			c-0.528,0.848-1.024,1.72-1.496,2.6c-0.36,0.664-0.704,1.32-1.032,2c-0.44,0.92-0.8,1.856-1.208,2.8
			c-0.272,0.68-0.552,1.344-0.8,2.04c-0.344,1-0.632,2.024-0.912,3.048c-0.184,0.664-0.392,1.328-0.544,2.008
			c-0.256,1.144-0.44,2.312-0.616,3.48c-0.088,0.584-0.208,1.152-0.28,1.736c-0.441,3.773-0.411,7.586,0.088,11.352
			c0.08,0.648,0.232,1.28,0.336,1.92c0.224,1.32,0.464,2.632,0.8,3.92c0.184,0.736,0.424,1.44,0.648,2.168
			c0.36,1.168,0.744,2.32,1.192,3.456c0.288,0.728,0.608,1.44,0.928,2.152c0.496,1.093,1.029,2.16,1.6,3.2
			c0.208,0.376,0.36,0.8,0.584,1.16H192v16H16V256z M216,464H24c-4.418,0-8-3.582-8-8v-40h176v16h16.584
			c0.056,0.392,0.192,0.8,0.256,1.16c0.319,1.887,0.736,3.756,1.248,5.6c0.152,0.544,0.272,1.088,0.432,1.6
			c0.705,2.281,1.555,4.515,2.544,6.688c0.224,0.488,0.488,0.952,0.728,1.44c0.851,1.735,1.791,3.426,2.816,5.064
			c0.36,0.584,0.72,1.16,1.104,1.728c1.345,2.022,2.82,3.954,4.416,5.784C220.623,462.905,218.378,463.981,216,464z M408,464H264
			c-9.991-0.007-19.615-3.765-26.968-10.528c-1.851-1.726-3.538-3.619-5.04-5.656c-0.448-0.6-0.8-1.224-1.248-1.848
			c-1.005-1.502-1.906-3.071-2.696-4.696c-0.328-0.68-0.672-1.352-0.96-2.048c-0.855-2.043-1.535-4.154-2.032-6.312
			c-0.056-0.256-0.16-0.488-0.216-0.744V432H447.2C443.373,450.611,427.001,463.976,408,464z M464,416H208v-16h256V416z"/>
	</g>
</g>
<g>
	<g>
		<path d="M304,176c-26.51,0-48,21.49-48,48c0.031,26.497,21.503,47.969,48,48c26.51,0,48-21.49,48-48
			C352,197.49,330.51,176,304,176z M304,256c-17.673,0-32-14.327-32-32s14.327-32,32-32c17.673,0,32,14.327,32,32
			S321.673,256,304,256z"/>
	</g>
</g>
<g>
	<g>
		<path d="M392,232c-17.673,0-32,14.327-32,32c0,17.673,14.327,32,32,32c17.673,0,32-14.327,32-32C424,246.327,409.673,232,392,232z
			 M392,280c-8.837,0-16-7.163-16-16s7.163-16,16-16s16,7.163,16,16S400.837,280,392,280z"/>
	</g>
</g>
<g>
	<g>
		<path d="M392,160c-13.255,0-24,10.745-24,24s10.745,24,24,24s24-10.745,24-24S405.255,160,392,160z M392,192c-4.418,0-8-3.582-8-8
			s3.582-8,8-8s8,3.582,8,8S396.418,192,392,192z"/>
	</g>
</g>
<g>
	<g>
		<rect x="64" y="272" width="112" height="16"/>
	</g>
</g>
<g>
	<g>
		<rect x="96" y="304" width="48" height="16"/>
	</g>
</g>
<g>
	<g>
		<rect x="80" y="336" width="80" height="16"/>
	</g>
</g>
<g>
	<g>
		<rect x="64" y="368" width="48" height="16"/>
	</g>
</g>
<g>
	<g>
		<rect x="128" y="368" width="48" height="16"/>
	</g>
</g>
<g>
</g>
<g>
</g>
<g>
</g>
<g>
</g>
<g>
</g>
<g>
</g>
<g>
</g>
<g>
</g>
<g>
</g>
<g>
</g>
<g>
</g>
<g>
</g>
<g>
</g>
<g>
</g>
<g>
</g>
</svg>
