<?xml version="1.0" encoding="utf-8"?>
<!-- Generator: Adobe Illustrator 21.0.2, SVG Export Plug-In . SVG Version: 6.00 Build 0)  -->
<svg version="1.1" id="Layer_1" xmlns="http://www.w3.org/2000/svg" xmlns:xlink="http://www.w3.org/1999/xlink" x="0px" y="0px"
	 viewBox="0 0 512 512" style="enable-background:new 0 0 512 512;" xml:space="preserve">
<style type="text/css">
	.st0{fill:#5E4736;}
</style>
<g>
	<g>
		<path class="st0" d="M432,32h-32V16c0-8.8-7.2-16-16-16s-16,7.2-16,16v16h-64V16c0-8.8-7.2-16-16-16s-16,7.2-16,16v16h-64V16
			c0-8.8-7.2-16-16-16s-16,7.2-16,16v16h-64V16c0-8.8-7.2-16-16-16S80,7.2,80,16v16H48C21.5,32,0,53.5,0,80v384c0,8.8,7.2,16,16,16
			h264.4C265,457.1,256,429.6,256,400c0-79.4,64.6-144,144-144c29.6,0,57.1,9,80,24.4V80C480,53.5,458.5,32,432,32z M112,416H80
			c-8.8,0-16-7.2-16-16s7.2-16,16-16h32c8.8,0,16,7.2,16,16S120.8,416,112,416z M112,352H80c-8.8,0-16-7.2-16-16s7.2-16,16-16h32
			c8.8,0,16,7.2,16,16S120.8,352,112,352z M112,288H80c-8.8,0-16-7.2-16-16s7.2-16,16-16h32c8.8,0,16,7.2,16,16S120.8,288,112,288z
			 M112,224H80c-8.8,0-16-7.2-16-16s7.2-16,16-16h32c8.8,0,16,7.2,16,16S120.8,224,112,224z M208,416h-32c-8.8,0-16-7.2-16-16
			s7.2-16,16-16h32c8.8,0,16,7.2,16,16S216.8,416,208,416z M208,352h-32c-8.8,0-16-7.2-16-16s7.2-16,16-16h32c8.8,0,16,7.2,16,16
			S216.8,352,208,352z M208,288h-32c-8.8,0-16-7.2-16-16s7.2-16,16-16h32c8.8,0,16,7.2,16,16S216.8,288,208,288z M208,224h-32
			c-8.8,0-16-7.2-16-16s7.2-16,16-16h32c8.8,0,16,7.2,16,16S216.8,224,208,224z M304,288h-32c-8.8,0-16-7.2-16-16s7.2-16,16-16h32
			c8.8,0,16,7.2,16,16S312.8,288,304,288z M304,224h-32c-8.8,0-16-7.2-16-16s7.2-16,16-16h32c8.8,0,16,7.2,16,16S312.8,224,304,224z
			 M400,224h-32c-8.8,0-16-7.2-16-16s7.2-16,16-16h32c8.8,0,16,7.2,16,16S408.8,224,400,224z M448,128H32V80c0-8.8,7.2-16,16-16h32
			v16c0,8.8,7.2,16,16,16s16-7.2,16-16V64h64v16c0,8.8,7.2,16,16,16s16-7.2,16-16V64h64v16c0,8.8,7.2,16,16,16s16-7.2,16-16V64h64
			v16c0,8.8,7.2,16,16,16s16-7.2,16-16V64h32c8.8,0,16,7.2,16,16V128z"/>
	</g>
</g>
<g>
	<g>
		<path class="st0" d="M400,288c-61.8,0-112,50.3-112,112s50.3,112,112,112s112-50.3,112-112S461.8,288,400,288z M464,416h-64
			c-8.8,0-16-7.2-16-16v-64c0-8.8,7.2-16,16-16s16,7.2,16,16v48h48c8.8,0,16,7.2,16,16S472.8,416,464,416z"/>
	</g>
</g>
</svg>
