<?xml version="1.0" encoding="utf-8"?><svg xmlns="http://www.w3.org/2000/svg" xmlns:xlink="http://www.w3.org/1999/xlink"><symbol viewBox="0 0 480 480" id="bed" xmlns="http://www.w3.org/2000/svg"><path d="M472 272h-8v-24a39.999 39.999 0 0 0-24-36.608V88a8 8 0 0 0-4.8-7.328A31.666 31.666 0 0 0 440 64c0-17.673-14.327-32-32-32-17.673 0-32 14.327-32 32a31.675 31.675 0 0 0 4.448 16H99.552A31.675 31.675 0 0 0 104 64c0-17.673-14.327-32-32-32S40 46.327 40 64a31.666 31.666 0 0 0 4.8 16.672A8 8 0 0 0 40 88v123.392A39.999 39.999 0 0 0 16 248v24H8a8 8 0 0 0-8 8v112a8 8 0 0 0 8 8h8v40a8 8 0 0 0 8 8h32a8 8 0 0 0 8-8v-40h352v40a8 8 0 0 0 8 8h32a8 8 0 0 0 8-8v-40h8a8 8 0 0 0 8-8V280a8 8 0 0 0-8-8zM408 48c8.837 0 16 7.163 16 16s-7.163 16-16 16-16-7.163-16-16 7.163-16 16-16zM72 48c8.837 0 16 7.163 16 16s-7.163 16-16 16-16-7.163-16-16 7.163-16 16-16zM56 96h368v112h-32.208A39.583 39.583 0 0 0 400 184v-16c-.026-22.08-17.92-39.974-40-40h-64c-22.08.026-39.974 17.92-40 40v16a39.583 39.583 0 0 0 8.208 24h-48.416A39.583 39.583 0 0 0 224 184v-16c-.026-22.08-17.92-39.974-40-40h-64c-22.08.026-39.974 17.92-40 40v16a39.583 39.583 0 0 0 8.208 24H56V96zm328 72v16c0 13.255-10.745 24-24 24h-64c-13.255 0-24-10.745-24-24v-16c0-13.255 10.745-24 24-24h64c13.255 0 24 10.745 24 24zm-176 0v16c0 13.255-10.745 24-24 24h-64c-13.255 0-24-10.745-24-24v-16c0-13.255 10.745-24 24-24h64c13.255 0 24 10.745 24 24zM32 248c0-13.255 10.745-24 24-24h368c13.255 0 24 10.745 24 24v24H32v-24zm16 184H32v-32h16v32zm400 0h-16v-32h16v32zm16-48H16v-96h448v96z"/><path d="M72 352H40a8 8 0 0 0 0 16h32a8 8 0 0 0 0-16zm368 0H104a8 8 0 0 0 0 16h336a8 8 0 0 0 0-16z"/></symbol><symbol viewBox="0 0 390.557 390.557" id="bed-fill" xmlns="http://www.w3.org/2000/svg"><path d="M389.772 248.296l-42.991-68.063V55.028l-17.5-17.5H61.275l-17.5 17.5v125.204L.784 248.296h388.988zM311.781 72.528v87.362c-22.553-5.834-61.514-13.028-116.503-13.028s-93.95 7.194-116.503 13.028V72.528h233.006zM0 269.831v35h40.778v48.197h35v-48.197h239v48.197h35v-48.197h40.779v-35z"/><path d="M181.075 128.653v-20.389c0-12.102-17.564-21.916-39.23-21.916s-39.229 9.814-39.229 21.916v30.604s23.14-5.826 39.045-7.332c14.319-1.357 39.414-2.883 39.414-2.883zm106.866 10.215v-30.604c0-12.102-17.564-21.916-39.23-21.916s-39.23 9.814-39.23 21.916v20.389s25.096 1.525 39.415 2.883c15.906 1.506 39.045 7.332 39.045 7.332z"/></symbol><symbol viewBox="0 0 470 470" id="blanket" xmlns="http://www.w3.org/2000/svg"><path d="M464.721 51.671C464.721 23.179 441.541 0 413.05 0H56.95C28.459 0 5.279 23.179 5.279 51.671v311.404c0 25.944 19.222 47.475 44.171 51.12v13.179H12.779c-4.143 0-7.5 3.358-7.5 7.5s3.357 7.5 7.5 7.5H49.45V455H12.779c-4.143 0-7.5 3.358-7.5 7.5s3.357 7.5 7.5 7.5h388.295c28.491 0 51.671-23.18 51.671-51.671v-77.34c0-.03-.004-.058-.004-.088 7.474-8.963 11.98-20.484 11.98-33.04V51.671zM401.074 455H64.45v-40.255h320.06c13.27 0 24.064-10.795 24.064-24.064 0-4.142-3.357-7.5-7.5-7.5s-7.5 3.358-7.5 7.5c0 4.998-4.066 9.064-9.064 9.064H56.95c-20.221 0-36.671-16.45-36.671-36.67V51.671C20.279 31.45 36.729 15 56.95 15h356.1c20.221 0 36.671 16.45 36.671 36.671v256.19c0 20.22-16.45 36.67-36.671 36.67H73.515c-13.27 0-24.064 10.795-24.064 24.064 0 4.142 3.357 7.5 7.5 7.5s7.5-3.358 7.5-7.5c0-4.998 4.066-9.064 9.064-9.064H413.05a51.354 51.354 0 0 0 24.695-6.295v65.093c0 20.22-16.45 36.671-36.671 36.671z"/><path d="M403.394 108.5c4.411 0 8-3.589 8-8s-3.589-8-8-8-8 3.589-8 8 3.588 8 8 8zm-296 168.616c4.411 0 8-3.589 8-8s-3.589-8-8-8-8 3.589-8 8 3.588 8 8 8zm-25-26c4.411 0 8-3.589 8-8s-3.589-8-8-8-8 3.589-8 8 3.588 8 8 8z"/></symbol><symbol viewBox="0 0 512.16 512.16" id="card" xmlns="http://www.w3.org/2000/svg"><path d="M273.067 337.147H409.6c5.12 0 8.533-3.413 8.533-8.533v-76.8c0-5.12-3.413-8.533-8.533-8.533H273.067c-5.12 0-8.533 3.413-8.533 8.533v76.8c-.001 5.119 3.413 8.533 8.533 8.533zm8.533-76.8h119.467v59.733H281.6v-59.733zM42.667 226.213h68.267c5.12 0 8.533-3.413 8.533-8.533s-3.413-8.533-8.533-8.533H42.667c-5.12 0-8.533 3.413-8.533 8.533s3.413 8.533 8.533 8.533zm102.4 0h68.267c5.12 0 8.533-3.413 8.533-8.533s-3.413-8.533-8.533-8.533h-68.267c-5.12 0-8.533 3.413-8.533 8.533s3.413 8.533 8.533 8.533zm-102.4 34.134H153.6c5.12 0 8.533-3.413 8.533-8.533s-3.413-8.533-8.533-8.533H42.667c-5.12 0-8.533 3.413-8.533 8.533s3.413 8.533 8.533 8.533zm170.666-17.067h-25.6c-5.12 0-8.533 3.413-8.533 8.533s3.413 8.533 8.533 8.533h25.6c5.12 0 8.533-3.413 8.533-8.533s-3.413-8.533-8.533-8.533z"/><path d="M504.32 137.467c-5.973-7.68-13.653-11.947-23.04-12.8l-20.48-2.482V81.147c0-18.773-15.36-34.133-34.133-34.133H34.133C15.36 47.013 0 62.373 0 81.147v273.067c0 15.413 10.357 28.518 24.453 32.718-.43 17.262 12.631 32.248 30.161 33.842l394.24 44.373h3.413c17.067 0 32.427-12.8 34.133-29.013l25.6-273.92c.853-8.534-1.707-17.921-7.68-24.747zm-487.253-30.72h426.667v51.2H17.067v-51.2zM34.133 64.08h392.533c9.387 0 17.067 7.68 17.067 17.067v8.533H17.067v-8.533c0-9.387 7.68-17.067 17.066-17.067zM17.067 354.213v-179.2h426.667v179.2c0 9.387-7.68 17.067-17.067 17.067H34.134c-9.387 0-17.067-7.68-17.067-17.067zM494.933 158.8l-25.6 273.92c-.853 9.387-9.387 16.213-18.773 15.36L57.173 403.707c-8.533-.853-14.507-7.68-15.36-15.36h384.853c18.773 0 34.133-15.36 34.133-34.133V138.32l19.627 1.707c4.267 0 8.533 2.56 11.093 5.973 2.561 3.413 4.268 8.533 3.414 12.8z"/></symbol><symbol viewBox="0 0 480 480" id="clock" xmlns="http://www.w3.org/2000/svg"><path d="M472 432h-24V280a8 8 0 0 0-14.552-4.584l-112 160A7.999 7.999 0 0 0 328 448h104v24a8 8 0 0 0 16 0v-24h24a8 8 0 0 0 0-16zm-40 0h-88.64L432 305.376V432z"/><path d="M328 464h-94.712l88.056-103.688c.2-.238.387-.486.56-.744 16.566-24.518 11.048-57.713-12.56-75.552-28.705-20.625-68.695-14.074-89.319 14.631A63.997 63.997 0 0 0 208 336a8 8 0 0 0 16 0c-.003-26.51 21.486-48.002 47.995-48.005A47.999 47.999 0 0 1 300 297.008c16.537 12.671 20.388 36.007 8.8 53.32l-98.896 116.496A8 8 0 0 0 216 480h112a8 8 0 0 0 0-16z"/><path d="M216.176 424.152a8 8 0 0 0-7.693-8.296h-.003C104.11 411.982 20.341 328.363 16.28 224H48a8 8 0 0 0 0-16H16.28C20.283 103.821 103.82 20.287 208 16.288V40a8 8 0 0 0 16 0V16.288c102.754 3.974 185.686 85.34 191.616 188l-31.2-31.2a8 8 0 0 0-11.312 11.312l44.656 44.656a7.863 7.863 0 0 0 3.152 2.296c.313.094.631.172.952.232a7.914 7.914 0 0 0 1.696.408h.456a7.708 7.708 0 0 0 1.792-.352c.329-.04.655-.101.976-.184a7.88 7.88 0 0 0 2.888-1.808l45.264-45.248a8 8 0 0 0-11.312-11.312l-31.976 31.952C425.933 90.37 331.38.281 216.568.112 216.368.104 216.2 0 216 0s-.368.104-.568.112C96.582.275.275 96.582.112 215.432c0 .2-.112.368-.112.568s.104.368.112.568c.199 115.917 91.939 210.97 207.776 215.28h.296a8 8 0 0 0 7.992-7.696z"/><path d="M323.48 108.52a8 8 0 0 0-11.312 0L226.2 194.48a25.055 25.055 0 0 0-20.408 0l-40.704-40.704a8 8 0 0 0-11.312 11.312l40.624 40.624c-5.704 11.94-.648 26.244 11.293 31.947a23.96 23.96 0 0 0 27.275-4.683 23.737 23.737 0 0 0 4.624-27.256l85.888-85.888a8 8 0 0 0 0-11.312zM221.658 221.654l-.002.002a8.185 8.185 0 0 1-11.312 0 8 8 0 1 1 11.314-.002z"/></symbol><symbol viewBox="0 0 512 512" id="docs" xmlns="http://www.w3.org/2000/svg"><path d="M441.239 137.656L306.547 2.964A10.118 10.118 0 0 0 299.391 0H109.598c-23.049 0-41.8 18.751-41.8 41.8v428.4c0 23.049 18.751 41.8 41.8 41.8h292.804c23.049 0 41.8-18.751 41.8-41.8V144.811a10.12 10.12 0 0 0-2.963-7.155zM309.511 34.549L409.654 134.69h-78.582c-11.889 0-21.56-9.672-21.56-21.562V34.549zM423.964 470.2c0 11.889-9.672 21.562-21.562 21.562H109.598c-11.889 0-21.562-9.673-21.562-21.562V41.8c0-11.889 9.673-21.562 21.562-21.562h179.674v92.892c0 23.049 18.75 41.8 41.799 41.8h92.893V470.2z"/><path d="M336.949 257.012H175.051c-5.588 0-10.119 4.531-10.119 10.119s4.531 10.119 10.119 10.119h161.898c5.59 0 10.119-4.531 10.119-10.119s-4.529-10.119-10.119-10.119zm0 45.196H175.051c-5.588 0-10.119 4.531-10.119 10.119s4.531 10.119 10.119 10.119h161.898c5.59 0 10.119-4.531 10.119-10.119s-4.529-10.119-10.119-10.119zm0 45.196H175.051c-5.588 0-10.119 4.531-10.119 10.119s4.531 10.119 10.119 10.119h161.898c5.59 0 10.119-4.531 10.119-10.119s-4.529-10.119-10.119-10.119zm-52.617 45.197H175.051c-5.588 0-10.119 4.531-10.119 10.119s4.531 10.119 10.119 10.119h109.281c5.59 0 10.119-4.531 10.119-10.119s-4.529-10.119-10.119-10.119z"/></symbol><symbol viewBox="0 0 232.495 232.495" id="hairdryer" xmlns="http://www.w3.org/2000/svg"><path d="M135.172 168.451c-4.001 11.418-10.423 24.289-18.023 34.143-16.931 21.952-42.817 34.061-49.904 28.596-7.086-5.466 12.403-35.433 29.333-57.385 5.69-7.378 10.826-13.8 15.564-18.984l23.03 13.63zm50.814-108.042c-18.809-11.133-57.23-19.638-83.571-18.184-.135.265-.278.528-.43.786l-21.15 35.733c-.073.122-.153.238-.228.358 8.497 16.972 24.765 36.874 40.248 50.746l-6.984 11.799a4.189 4.189 0 0 0-.456 3.194 4.188 4.188 0 0 0 1.937 2.581l25.701 15.212a4.202 4.202 0 0 0 2.14.589c1.51 0 2.869-.774 3.636-2.07l7.32-12.368c20.085 3.431 36.127-9.389 44.904-24.217 11.093-18.743 14.743-47.698-13.067-64.159zM93.908 33.484L78.59 6.277C76.377 2.347 72.362 0 67.849 0c-4.396 0-8.357 2.26-10.598 6.045L26.906 57.314c-2.269 3.832-2.318 8.438-.134 12.319 2.186 3.882 6.15 6.228 10.602 6.277l31.222.337.052.001a4.736 4.736 0 0 0 4.058-2.315L93.856 38.2a4.73 4.73 0 0 0 .052-4.716z"/></symbol><symbol viewBox="0 0 512 512" id="hand" xmlns="http://www.w3.org/2000/svg"><path d="M351.117 288.678l-69.513-42.712a7.67 7.67 0 0 0-2.804-1.028l-21.763-3.84c-4.026-.712-7.98 2.058-8.69 6.084s2.057 7.98 6.083 8.69l20.537 3.624 68.297 41.965c3.334 2.049 7.907 1.054 10.12-2.166 2.374-3.456 1.302-8.422-2.267-10.617z"/><path d="M509.513 291.083a7.503 7.503 0 0 0-10.603-.359l-30.409 28.42-139.338-137.482L509.161 12.974a7.502 7.502 0 0 0-10.258-10.946L313.213 176.05c-3.062 2.869-3.126 7.865-.139 10.813l12.325 12.159-3.934 3.474-82.381-7.094a7.517 7.517 0 0 0-3.752.647l-65.273 29.728a7.682 7.682 0 0 0-.577-.132l-37.546-6.626 3.036-7.761a7.5 7.5 0 0 0-4.2-9.697L10.756 153.555a7.497 7.497 0 0 0-9.75 4.179 7.5 7.5 0 0 0 4.179 9.75l113.103 45.242-66.652 170.329-41.162-14.579a7.501 7.501 0 1 0-5.008 14.142l48.006 17.002c3.768 1.335 8.034-.618 9.489-4.338L74.1 366.816l29.187 16.356-3.219 5.218c-9.121 14.783-4.516 34.231 10.268 43.353 7.818 4.824 17.523 5.968 26.259 3.14 1.401 9.104 6.751 17.228 14.596 22.068 7.818 4.824 17.522 5.968 26.259 3.14 1.402 9.104 6.75 17.227 14.595 22.068 7.842 4.839 17.496 5.978 26.261 3.149 1.404 9.1 6.751 17.22 14.594 22.059 11.399 7.033 26.487 5.982 36.762-2.63a31.672 31.672 0 0 0 6.593-7.638l5.117-8.292 4.213 2.588c11.414 7.013 26.498 5.933 36.757-2.698a31.687 31.687 0 0 0 6.579-7.65 31.32 31.32 0 0 0 4.587-18.381c2.382.573 4.82.881 7.28.881 10.894 0 21.199-5.745 26.9-15.023 3.434-5.59 5.003-11.963 4.605-18.378 2.376.57 4.809.876 7.261.876 10.894 0 21.2-5.745 26.9-15.023 3.437-5.594 5.005-11.971 4.604-18.391 2.402.572 4.841.871 7.269.871 10.594 0 20.953-5.334 26.894-15.003 9.094-14.801 4.452-34.24-10.349-43.334l-5.14-3.158 17.239-18.012 16.125 15.91c2.828 2.789 7.489 2.851 10.39.141l35.671-33.337a7.503 7.503 0 0 0 .356-10.603zm-368.59 122.514c-4.779 7.743-14.966 10.155-22.71 5.379-7.744-4.778-10.156-14.965-5.379-22.709l42.014-68.091c4.689-7.6 14.751-10.085 22.434-5.546 7.95 4.7 10.144 15.599 5.371 23.336l-41.73 67.631zm40.853 25.208c-4.777 7.743-14.965 10.156-22.708 5.379-7.65-4.721-10.107-15.047-5.379-22.709l33.61-54.473c4.689-7.599 14.751-10.085 22.434-5.546 7.95 4.7 10.144 15.599 5.37 23.336l-33.327 54.013zm40.858 25.208a16.406 16.406 0 0 1-10.242 7.393 16.391 16.391 0 0 1-12.469-2.014c-7.649-4.721-10.106-15.048-5.378-22.709l25.208-40.855c4.689-7.6 14.752-10.085 22.434-5.546 7.95 4.7 10.144 15.599 5.371 23.336l-24.924 40.395zm57.376-1.567l-16.522 26.776c-4.721 7.65-15.047 10.105-22.71 5.378-7.649-4.72-10.105-15.048-5.378-22.709l16.805-27.236c4.689-7.598 14.752-10.087 22.434-5.545 7.95 4.699 10.144 15.599 5.371 23.336zm136.644-133.498l-37.182-22.847c-3.448-2.119-8.199-.984-10.317 2.464-2.119 3.448-.984 8.199 2.464 10.317l55.397 34.039c7.752 4.764 10.184 14.946 5.421 22.699-4.764 7.752-14.947 10.184-22.7 5.421l-59.413-36.508a7.501 7.501 0 0 0-7.853 12.781l45.78 28.13c7.659 4.706 10.134 15.029 5.421 22.699-4.706 7.659-15.029 10.133-22.699 5.421l-41.488-25.493a7.5 7.5 0 1 0-7.853 12.781l27.854 17.115c7.658 4.707 10.134 15.028 5.421 22.699-4.706 7.658-15.029 10.134-22.699 5.421 0 0-24.496-15.037-24.725-15.147a7.502 7.502 0 0 0-7.181 13.148l10.419 6.402c7.752 4.764 10.183 14.946 5.42 22.699-4.706 7.659-15.029 10.133-22.699 5.421l-4.188-2.574 3.527-5.717c4.509-7.308 5.908-16.308 3.838-24.692-2.042-8.274-7.136-15.176-14.341-19.435-5.622-3.322-11.911-4.668-18.035-4.255 1.15-4.94 1.156-10.146-.076-15.137-2.042-8.274-7.136-15.176-14.341-19.435-5.622-3.323-11.911-4.669-18.035-4.256 3.093-13.288-2.601-27.585-14.417-34.571-5.622-3.322-11.911-4.668-18.035-4.256 3.093-13.288-2.601-27.585-14.417-34.571-14.669-8.671-33.884-3.922-42.834 10.582l-30.91 50.096-31.558-17.678 46.738-119.442 25.448 4.491c-7.238 8.99-9.273 21.647-4.173 32.848 5.278 11.588 16.744 18.445 28.718 18.444 4.361 0 8.79-.91 13.011-2.832l43.928-20.008c3.72-1.694 5.412-6.215 3.717-9.935-1.694-3.719-6.215-5.413-9.935-3.717l-43.929 20.007c-8.279 3.772-18.086.103-21.858-8.178-3.771-8.281-.103-18.086 8.178-21.858l70.294-32.015 83.618 7.201a7.507 7.507 0 0 0 5.608-1.849l7.118-6.285 100.186 98.849-19.633 20.516z"/></symbol><symbol viewBox="0 0 512 512" id="house" xmlns="http://www.w3.org/2000/svg"><path d="M504 452H8c-4.424 0-8 3.576-8 8s3.576 8 8 8h496c4.424 0 8-3.576 8-8s-3.576-8-8-8z"/><path d="M256 388c-4.424 0-8 3.576-8 8v64c0 4.424 3.576 8 8 8s8-3.576 8-8v-64c0-4.424-3.576-8-8-8zM48 352.872c-4.424 0-8 3.576-8 8V460c0 4.424 3.576 8 8 8s8-3.576 8-8v-99.128c0-4.424-3.576-8-8-8zm152 0c-4.424 0-8 3.576-8 8V460c0 4.424 3.576 8 8 8s8-3.576 8-8v-99.128c0-4.424-3.576-8-8-8z"/><path d="M130.576 303.424a8.01 8.01 0 0 0-11.144-2l-92 64c-3.624 2.528-4.52 7.52-2 11.144A7.98 7.98 0 0 0 32.008 380a8.005 8.005 0 0 0 4.568-1.432l92-64c3.624-2.528 4.52-7.52 2-11.144z"/><path d="M220.576 365.424l-92-64c-3.64-2.52-8.632-1.632-11.144 2-2.52 3.632-1.624 8.624 2 11.144l92 64a7.962 7.962 0 0 0 4.56 1.432 8.005 8.005 0 0 0 6.584-3.432c2.52-3.632 1.624-8.624-2-11.144zm-90-94a8.01 8.01 0 0 0-11.144-2l-92 64c-3.624 2.528-4.52 7.52-2 11.144A7.98 7.98 0 0 0 32.008 348a8.005 8.005 0 0 0 4.568-1.432l92-64c3.624-2.528 4.52-7.52 2-11.144z"/><path d="M220.576 333.424l-92-64c-3.64-2.52-8.632-1.632-11.144 2-2.52 3.632-1.624 8.624 2 11.144l92 64a7.962 7.962 0 0 0 4.56 1.432 8.005 8.005 0 0 0 6.584-3.432c2.52-3.632 1.624-8.624-2-11.144zM32 332c-4.424 0-8 3.576-8 8v32c0 4.424 3.576 8 8 8s8-3.576 8-8v-32c0-4.424-3.576-8-8-8z"/><path d="M216 332c-4.424 0-8 3.576-8 8v32c0 4.424 3.576 8 8 8s8-3.576 8-8v-32c0-4.424-3.576-8-8-8zm-72 48h-40c-4.424 0-8 3.576-8 8v72c0 4.424 3.576 8 8 8h40c4.424 0 8-3.576 8-8v-72c0-4.424-3.576-8-8-8zm-8 72h-24v-56h24v56zm176-99.128c-4.424 0-8 3.576-8 8V460c0 4.424 3.576 8 8 8s8-3.576 8-8v-99.128c0-4.424-3.576-8-8-8zm152 0c-4.424 0-8 3.576-8 8V460c0 4.424 3.576 8 8 8s8-3.576 8-8v-99.128c0-4.424-3.576-8-8-8z"/><path d="M394.576 303.424a8.01 8.01 0 0 0-11.144-2l-92 64c-3.624 2.528-4.52 7.52-2 11.144a7.98 7.98 0 0 0 6.576 3.432 8.005 8.005 0 0 0 4.568-1.432l92-64c3.624-2.528 4.52-7.52 2-11.144z"/><path d="M484.576 365.424l-92-64c-3.632-2.52-8.624-1.632-11.144 2-2.52 3.632-1.624 8.624 2 11.144l92 64a7.962 7.962 0 0 0 4.56 1.432 8.005 8.005 0 0 0 6.584-3.432c2.52-3.632 1.624-8.624-2-11.144zm-90-94a8.01 8.01 0 0 0-11.144-2l-92 64c-3.624 2.528-4.52 7.52-2 11.144a7.98 7.98 0 0 0 6.576 3.432 8.005 8.005 0 0 0 4.568-1.432l92-64c3.624-2.528 4.52-7.52 2-11.144z"/><path d="M484.576 333.424l-92-64c-3.632-2.52-8.624-1.632-11.144 2-2.52 3.632-1.624 8.624 2 11.144l92 64a7.962 7.962 0 0 0 4.56 1.432 8.005 8.005 0 0 0 6.584-3.432c2.52-3.632 1.624-8.624-2-11.144zM296 332c-4.424 0-8 3.576-8 8v32c0 4.424 3.576 8 8 8s8-3.576 8-8v-32c0-4.424-3.576-8-8-8z"/><path d="M480 332c-4.424 0-8 3.576-8 8v32c0 4.424 3.576 8 8 8s8-3.576 8-8v-32c0-4.424-3.576-8-8-8zm-72 48h-40c-4.424 0-8 3.576-8 8v72c0 4.424 3.576 8 8 8h40c4.424 0 8-3.576 8-8v-72c0-4.424-3.576-8-8-8zm-8 72h-24v-56h24v56zM72 84c-17.648 0-32 14.352-32 32s14.352 32 32 32 32-14.352 32-32-14.352-32-32-32zm0 48c-8.824 0-16-7.176-16-16s7.176-16 16-16 16 7.176 16 16-7.176 16-16 16zm0-88c-4.424 0-8 3.584-8 8v16c0 4.416 3.576 8 8 8s8-3.584 8-8V52c0-4.416-3.576-8-8-8zm0 112c-4.424 0-8 3.584-8 8v16c0 4.416 3.576 8 8 8s8-3.584 8-8v-16c0-4.416-3.576-8-8-8zM43.72 76.4L32.408 65.088a7.991 7.991 0 0 0-11.312 0 7.991 7.991 0 0 0 0 11.312l11.312 11.312a7.978 7.978 0 0 0 5.656 2.344 7.945 7.945 0 0 0 5.656-2.344 7.991 7.991 0 0 0 0-11.312zm79.192 79.2l-11.32-11.32a7.991 7.991 0 0 0-11.312 0 7.991 7.991 0 0 0 0 11.312l11.32 11.32a7.978 7.978 0 0 0 5.656 2.344 7.945 7.945 0 0 0 5.656-2.344 7.991 7.991 0 0 0 0-11.312zM24 108H8c-4.424 0-8 3.584-8 8s3.576 8 8 8h16c4.424 0 8-3.584 8-8s-3.576-8-8-8zm112.008 0H120c-4.424 0-8 3.584-8 8s3.576 8 8 8h16.008c4.424 0 8-3.584 8-8s-3.576-8-8-8zM43.72 144.28a7.991 7.991 0 0 0-11.312 0l-11.312 11.312a7.991 7.991 0 0 0 0 11.312 7.978 7.978 0 0 0 5.656 2.344 7.958 7.958 0 0 0 5.656-2.344l11.312-11.312a7.991 7.991 0 0 0 0-11.312zm79.2-79.2a7.991 7.991 0 0 0-11.312 0l-11.32 11.328c-3.128 3.128-3.128 8.192 0 11.312a7.978 7.978 0 0 0 5.656 2.344 7.978 7.978 0 0 0 5.656-2.344l11.32-11.328c3.128-3.128 3.128-8.192 0-11.312zM292 188.4c-4.424 0-8 3.584-8 8s3.576 8 8 8c2.2 0 4 1.792 4 4s-1.8 4-4 4c-4.424 0-8 3.584-8 8s3.576 8 8 8c11.032 0 20-8.976 20-20s-8.968-20-20-20zm-44-24c-17.648 0-32 14.352-32 32s14.352 32 32 32c4.424 0 8-3.584 8-8s-3.576-8-8-8c-8.824 0-16-7.176-16-16s7.176-16 16-16 16 7.176 16 16c0 4.416 3.576 8 8 8s8-3.584 8-8c0-17.648-14.352-32-32-32z"/><path d="M292 212.4h-44c-4.424 0-8 3.584-8 8s3.576 8 8 8h44c4.424 0 8-3.584 8-8s-3.576-8-8-8zm0-24h-20c-4.424 0-8 3.584-8 8s3.576 8 8 8h20c4.424 0 8-3.584 8-8s-3.576-8-8-8zM479.952 108H455.24c-3.712-18.232-19.872-32-39.192-32-22.056 0-40 17.944-40 40s17.944 40 40 40h63.904c13.232 0 24-10.768 24-24s-10.768-24-24-24zm0 32h-63.904c-13.232 0-24-10.768-24-24s10.768-24 24-24 24 10.768 24 24c0 4.416 3.576 8 8 8h31.904c4.416 0 8 3.592 8 8s-3.584 8-8 8z"/></symbol><symbol viewBox="0 0 512 268" id="house-1" xmlns="http://www.w3.org/2000/svg"><path d="M504 208H8c-4.4 0-8 3.6-8 8s3.6 8 8 8h496c4.4 0 8-3.6 8-8s-3.6-8-8-8z"/><path d="M256 144c-4.4 0-8 3.6-8 8v64c0 4.4 3.6 8 8 8s8-3.6 8-8v-64c0-4.4-3.6-8-8-8zM48 108.9c-4.4 0-8 3.6-8 8V216c0 4.4 3.6 8 8 8s8-3.6 8-8v-99.1c0-4.5-3.6-8-8-8zm152 0c-4.4 0-8 3.6-8 8V216c0 4.4 3.6 8 8 8s8-3.6 8-8v-99.1c0-4.5-3.6-8-8-8z"/><path d="M130.6 59.4c-2.5-3.6-7.5-4.5-11.1-2l-92 64c-3.6 2.5-4.5 7.5-2 11.1 1.6 2.2 4 3.4 6.6 3.4 1.6 0 3.2-.5 4.6-1.4l92-64c3.5-2.5 4.4-7.5 1.9-11.1z"/><path d="M220.6 121.4l-92-64c-3.6-2.5-8.6-1.6-11.1 2s-1.6 8.6 2 11.1l92 64c1.4 1 3 1.4 4.6 1.4 2.5 0 5-1.2 6.6-3.4 2.4-3.6 1.5-8.6-2.1-11.1zm-90-94c-2.5-3.6-7.5-4.5-11.1-2l-92 64c-3.6 2.5-4.5 7.5-2 11.1 1.6 2.2 4 3.4 6.6 3.4 1.6 0 3.2-.5 4.6-1.4l92-64c3.5-2.5 4.4-7.5 1.9-11.1z"/><path d="M220.6 89.4l-92-64c-3.6-2.5-8.6-1.6-11.1 2s-1.6 8.6 2 11.1l92 64c1.4 1 3 1.4 4.6 1.4 2.5 0 5-1.2 6.6-3.4 2.4-3.6 1.5-8.6-2.1-11.1zM32 88c-4.4 0-8 3.6-8 8v32c0 4.4 3.6 8 8 8s8-3.6 8-8V96c0-4.4-3.6-8-8-8z"/><path d="M216 88c-4.4 0-8 3.6-8 8v32c0 4.4 3.6 8 8 8s8-3.6 8-8V96c0-4.4-3.6-8-8-8zm-72 48h-40c-4.4 0-8 3.6-8 8v72c0 4.4 3.6 8 8 8h40c4.4 0 8-3.6 8-8v-72c0-4.4-3.6-8-8-8zm-8 72h-24v-56h24v56zm176-99.1c-4.4 0-8 3.6-8 8V216c0 4.4 3.6 8 8 8s8-3.6 8-8v-99.1c0-4.5-3.6-8-8-8zm152 0c-4.4 0-8 3.6-8 8V216c0 4.4 3.6 8 8 8s8-3.6 8-8v-99.1c0-4.5-3.6-8-8-8z"/><path d="M394.6 59.4c-2.5-3.6-7.5-4.5-11.1-2l-92 64c-3.6 2.5-4.5 7.5-2 11.1 1.6 2.2 4 3.4 6.6 3.4 1.6 0 3.2-.5 4.6-1.4l92-64c3.5-2.5 4.4-7.5 1.9-11.1z"/><path d="M484.6 121.4l-92-64c-3.6-2.5-8.6-1.6-11.1 2s-1.6 8.6 2 11.1l92 64c1.4 1 3 1.4 4.6 1.4 2.5 0 5-1.2 6.6-3.4 2.4-3.6 1.5-8.6-2.1-11.1zm-90-94c-2.5-3.6-7.5-4.5-11.1-2l-92 64c-3.6 2.5-4.5 7.5-2 11.1 1.6 2.2 4 3.4 6.6 3.4 1.6 0 3.2-.5 4.6-1.4l92-64c3.5-2.5 4.4-7.5 1.9-11.1z"/><path d="M484.6 89.4l-92-64c-3.6-2.5-8.6-1.6-11.1 2s-1.6 8.6 2 11.1l92 64c1.4 1 3 1.4 4.6 1.4 2.5 0 5-1.2 6.6-3.4 2.4-3.6 1.5-8.6-2.1-11.1zM296 88c-4.4 0-8 3.6-8 8v32c0 4.4 3.6 8 8 8s8-3.6 8-8V96c0-4.4-3.6-8-8-8z"/><path d="M480 88c-4.4 0-8 3.6-8 8v32c0 4.4 3.6 8 8 8s8-3.6 8-8V96c0-4.4-3.6-8-8-8zm-72 48h-40c-4.4 0-8 3.6-8 8v72c0 4.4 3.6 8 8 8h40c4.4 0 8-3.6 8-8v-72c0-4.4-3.6-8-8-8zm-8 72h-24v-56h24v56z"/></symbol><symbol viewBox="0 0 316.109 316.109" id="iron" xmlns="http://www.w3.org/2000/svg"><path d="M95.815 113.435v-9.159h-12.69v17.269a264.074 264.074 0 0 1 12.69-8.11zm101.297 46.401c-4.917-7.054-14.892-11.961-26.461-12.129-.201-.005-.402-.005-.604-.005-11.313 0-21.163 4.58-26.195 11.368-1.594 2.148-1.447 4.378-.326 6.222 1.392 2.295 4.319 3.976 7.647 4.025l38.324.549h.147c5.537 0 10.106-4.471 7.952-9.04-.153-.321-.256-.659-.484-.99z"/><path d="M274.276 101.779c-.604-.848-1.343-1.594-2.159-2.268-.794-.658-1.713-1.191-2.72-1.626a12.019 12.019 0 0 0-2.72-.81v-8.991c0-1.588-1.36-3.263-2.845-3.514-6.005-1.028-18.564-2.752-35.245-2.752-30.986 0-78.35 5.999-127.334 34.696-.903.533-1.811 1.11-2.72 1.653-.908.544-1.811 1.099-2.72 1.659a263.356 263.356 0 0 0-7.386 4.754 247.734 247.734 0 0 0-4.025 2.72c-1.273.881-2.545 1.8-3.818 2.72-26.793 19.298-53.455 45.987-77.588 82.875l-.098.158c.06.005.125.005.207.005H237.61c1.414 0 2.671-1.24 2.921-2.872 1.24-8.044 5.88-22.24 23.062-26.815 1.697-.451 3.084-2.045 3.084-3.552v-57.262a12.613 12.613 0 0 0 2.72-.794c.995-.43 1.925-.936 2.72-1.583a11.722 11.722 0 0 0 1.768-1.789c24.476 4.455 24.644 39.281 25.89 60.21.626 10.454 16.943 10.514 16.317 0-1.812-30.492-5.804-73.194-41.816-76.822zm-40.059 44.475c-.071 13.396-12.635 13.658-30.954 14.343.631 2.507.424 5.107-.832 7.517-2.279 4.373-7.294 7.196-13.005 7.196h-.005l-38.324-.549c-5.537-.082-10.546-3.019-12.76-7.495-.337-.685-.522-1.403-.707-2.121-18.955-.848-33.01-5.243-27.163-15.142 11.444-19.39 31.22-31.362 62.424-37.383 61.565-11.885 61.565-11.885 61.326 33.634zM0 221.199h251.611v13.092H0z"/></symbol><symbol viewBox="0 0 380.721 380.721" id="kettle" xmlns="http://www.w3.org/2000/svg"><path d="M221.493 29.994c.197-1.214.372-2.417.372-3.689C221.865 11.781 210.084 0 195.561 0c-14.529 0-26.322 11.781-26.322 26.305 0 1.76.203 3.474.528 5.142C125.186 42.722 107.34 77.38 107.34 77.38h182.634s-19.369-37.94-68.481-47.386zm-31.608 244.102h30.853v-9.342h-30.853v-17.973h30.853v-9.329h-30.853v-20.264h30.853v-9.342h-30.853V189.53h30.853v-9.342h-30.853v-16.109h30.853v-9.33h-30.853v-20.46h-10.329v160.268h10.329z"/><path d="M227.035 330.168h103.186c8.237-106.276-11.352-175.408-11.352-175.408s40.235-25.793 46.417-64.995H101.164s-4.235 7.686-9.731 23.975c-31.068 9.661-74.586 35.965-75.957 86.797-1.406 52.47 32.957 88.696 50.495 103.743-.047 8.4-.07 16.928.093 25.898h98.015v11.352H55.242v39.189h286.831V341.52h-115.05v-11.352h.012zM48.503 201.445c.645-23.911 16.493-38.568 32.009-47.242-5.583 25.747-10.701 59.872-13.1 103.383-10.329-14.105-19.525-33.207-18.909-56.141zm148.626-94.82c29.232 0 52.958 46.661 52.958 104.208 0 57.535-23.726 104.196-52.958 104.196-29.256 0-52.97-46.661-52.97-104.196 0-57.548 23.714-104.208 52.97-104.208z"/></symbol><symbol viewBox="0 0 512.981 512.981" id="kichen" xmlns="http://www.w3.org/2000/svg"><path d="M40.491 120.981v324h432v-324h-432zm364 260c0 11.048-8.956 20-20 20h-260c-11.044 0-20-8.952-20-20v-160c0-11.048 8.956-20 20-20h260c11.044 0 20 8.952 20 20v160zm12.588-200.196c-6.616 0-12-3.416-12-10.032 0-4.272-3.472-5.772-7.744-5.772H125.159c-4.268 0-7.748 1.5-7.748 5.772 0 6.616-5.384 11.016-12 11.016s-12-3.908-12-10.524c0-17.5 14.244-30.264 31.748-30.264h272.18c17.504 0 31.744 12.272 31.744 29.772-.004 6.62-5.384 10.032-12.004 10.032zm23.412-167.576V.981H81.331c-2.212 0-8.84-2.208-8.84 0v12.228c-16 .8-32 15.516-32 33.54v58.232h432V46.745c0-18.012-16-32.712-32-33.536zM117.119 88.873c-15.452 0-28.032-12.576-28.032-28.032 0-4.824 1.228-9.372 3.384-13.336l37.984 37.984a27.855 27.855 0 0 1-13.336 3.384zm24.652-14.696l-37.988-37.988a27.9 27.9 0 0 1 13.336-3.384c15.452 0 28.032 12.576 28.032 28.036 0 4.824-1.228 9.368-3.38 13.336zm71.468 14.696c-15.456 0-28.036-12.576-28.036-28.032a27.89 27.89 0 0 1 3.384-13.336l37.992 37.984a27.871 27.871 0 0 1-13.34 3.384zm24.656-14.696l-37.992-37.988a27.905 27.905 0 0 1 13.34-3.384c15.456 0 28.032 12.576 28.032 28.036 0 4.824-1.224 9.368-3.38 13.336zm70.556 14.696c-15.452 0-28.032-12.576-28.032-28.032 0-4.824 1.228-9.372 3.384-13.336l37.988 37.984a27.871 27.871 0 0 1-13.34 3.384zm24.652-14.696l-37.988-37.988a27.9 27.9 0 0 1 13.336-3.384c15.456 0 28.036 12.576 28.036 28.036 0 4.824-1.228 9.368-3.384 13.336zm71.468 14.696c-15.452 0-28.032-12.576-28.032-28.032a27.89 27.89 0 0 1 3.384-13.336l37.988 37.984a27.86 27.86 0 0 1-13.34 3.384zm24.656-14.696l-37.988-37.988a27.89 27.89 0 0 1 13.336-3.384c15.456 0 28.036 12.576 28.036 28.036 0 4.824-1.228 9.368-3.384 13.336zM440.491.981h.464c2.212 0-.464-2.208-.464 0zm-400 460v52h431.916s.084-5.788.084-8v-44h-432z"/></symbol><symbol viewBox="0 0 512 512" id="knife" xmlns="http://www.w3.org/2000/svg"><path d="M498.682 435.326L297.917 234.56 63.357 0H45.026l-3.743 9.511c-9.879 25.104-14.1 50.78-12.205 74.249 2.16 26.752 12.323 49.913 29.392 66.982l183.11 183.11 24.152-24.152 169.285 189.293c16.84 16.84 45.825 17.84 63.665 0 17.554-17.554 17.554-46.114 0-63.667zM156.728 291.442L13.317 434.853c-17.552 17.552-17.552 46.113 0 63.665 16.674 16.674 45.519 18.146 63.665 0l143.412-143.412-63.666-63.664zM490.253 85.249l-81.351 81.35-21.223-21.222 81.351-81.351-21.222-21.222-81.35 81.35-21.222-21.222 81.351-81.35L405.366.361l-106.11 106.11a74.903 74.903 0 0 0-21.828 48.535c-.277 4.641-1.329 9.206-3.074 13.548l68.929 68.929c4.342-1.747 8.908-2.798 13.548-3.075a74.887 74.887 0 0 0 48.535-21.827l106.11-106.109-21.223-21.223z"/></symbol><symbol viewBox="0 0 53.545 53.545" id="man" xmlns="http://www.w3.org/2000/svg"><circle cx="26.686" cy="4.507" r="4.507"/><path d="M28.256 11.163a8.205 8.205 0 0 0-3.447.042c-7.493.878-9.926 9.551-9.239 16.164.298 2.859 4.805 2.889 4.504 0-.25-2.41-.143-6.047 1.138-8.632v9.425c0 .111.011.215.016.322-.003.051-.015.094-.015.146 0 7.479-.013 14.955-.322 22.428-.137 3.322 5.014 3.309 5.15 0 .242-5.857.303-11.717.317-17.578.244.016.488.016.732.002.015 5.861.074 11.721.314 17.576.137 3.309 5.288 3.322 5.15 0-.309-7.473-.32-14.949-.32-22.428 0-.232-.031-.443-.078-.646-.007-3.247-.131-6.497-.093-9.742 1.534 2.597 1.674 6.558 1.408 9.125-.302 2.887 4.206 2.858 4.504 0 .703-6.75-1.847-15.648-9.719-16.204z"/></symbol><symbol viewBox="0 0 512 512" id="marker" xmlns="http://www.w3.org/2000/svg"><path d="M256 0C153.755 0 70.573 83.182 70.573 185.426c0 126.888 165.939 313.167 173.004 321.035 6.636 7.391 18.222 7.378 24.846 0 7.065-7.868 173.004-194.147 173.004-321.035C441.425 83.182 358.244 0 256 0zm0 278.719c-51.442 0-93.292-41.851-93.292-93.293S204.559 92.134 256 92.134s93.291 41.851 93.291 93.293-41.85 93.292-93.291 93.292z"/></symbol><symbol viewBox="0 0 403.48 403.48" id="microwave" xmlns="http://www.w3.org/2000/svg"><path d="M388.48 84.381H15c-8.283 0-15 6.717-15 15V304.1c0 8.285 6.717 15 15 15h373.48c8.283 0 15-6.715 15-15V99.381c0-8.283-6.716-15-15-15zM258.74 284.1H35V119.381h223.74V284.1zm36.735-96.692a8.153 8.153 0 1 1 8.153 8.154 8.153 8.153 0 0 1-8.153-8.154zm36.265 80.926c-13.807 0-25.001-11.192-25.001-25 0-4.07.979-7.909 2.704-11.305v-10.99h10.99a24.872 24.872 0 0 1 11.307-2.705c13.807 0 25.002 11.193 25.002 25 0 13.808-11.195 25-25.002 25zm-9.086-80.926a8.153 8.153 0 0 1 16.306 0 8.153 8.153 0 1 1-16.306 0zm35.332 8.154a8.154 8.154 0 1 1 8.154-8.154 8.153 8.153 0 0 1-8.154 8.154zm10.088-30.155h-72.668V124.74h72.668v40.667z"/><path d="M122.132 240.631c.586.586 1.354.879 2.121.879s1.535-.293 2.12-.879l73.54-73.539a2.998 2.998 0 0 0 0-4.242 2.998 2.998 0 0 0-4.242 0l-73.539 73.539a2.998 2.998 0 0 0 0 4.242zm-34.649.879a2.99 2.99 0 0 0 2.121-.879l73.539-73.539a2.998 2.998 0 0 0 0-4.242 2.998 2.998 0 0 0-4.242 0l-73.539 73.539a2.998 2.998 0 0 0 2.121 5.121z"/></symbol><symbol viewBox="0 0 401.601 401.6" id="money" xmlns="http://www.w3.org/2000/svg"><path d="M116.682 229.329c11.286 0 22.195-.729 32.518-2.086V114.094c-10.322-1.356-21.232-2.085-32.518-2.085C52.241 112.009.001 135.702.001 164.93v11.477c0 29.227 52.24 52.922 116.681 52.922zm0 59.082c11.286 0 22.195-.729 32.518-2.084v-33.166c-10.325 1.356-21.229 2.095-32.518 2.095-56.25 0-103.199-18.054-114.227-42.082-1.606 3.5-2.454 7.124-2.454 10.839v11.477c0 29.228 52.24 52.921 116.681 52.921zm32.517 26.412v-2.578c-10.325 1.356-21.229 2.095-32.518 2.095-56.25 0-103.199-18.054-114.227-42.082C.848 275.757 0 279.381 0 283.096v11.477c0 29.229 52.24 52.922 116.681 52.922 12.887 0 25.282-.95 36.873-2.7-2.873-5.877-4.355-12.075-4.355-18.496v-11.476zM284.92 22.379c-64.441 0-116.681 23.693-116.681 52.921v11.477c0 29.228 52.24 52.921 116.681 52.921 64.44 0 116.681-23.693 116.681-52.921V75.3c0-29.228-52.241-52.921-116.681-52.921z"/><path d="M284.92 165.626c-56.25 0-103.199-18.053-114.227-42.082-1.606 3.499-2.454 7.123-2.454 10.839v11.477c0 29.228 52.24 52.921 116.681 52.921 64.44 0 116.681-23.693 116.681-52.921v-11.477c0-3.716-.848-7.34-2.454-10.839-11.028 24.029-57.977 42.082-114.227 42.082z"/><path d="M284.92 224.71c-56.25 0-103.199-18.054-114.227-42.082-1.606 3.499-2.454 7.123-2.454 10.839v11.477c0 29.229 52.24 52.922 116.681 52.922 64.44 0 116.681-23.693 116.681-52.922v-11.477c0-3.716-.848-7.34-2.454-10.839-11.028 24.029-57.977 42.082-114.227 42.082z"/><path d="M284.92 286.983c-56.25 0-103.199-18.054-114.227-42.082-1.606 3.5-2.454 7.123-2.454 10.838v11.478c0 29.228 52.24 52.921 116.681 52.921 64.44 0 116.681-23.693 116.681-52.921v-11.478c0-3.715-.848-7.34-2.454-10.838-11.028 24.027-57.977 42.082-114.227 42.082z"/><path d="M284.92 346.066c-56.25 0-103.199-18.053-114.227-42.081-1.606 3.5-2.454 7.125-2.454 10.838V326.3c0 29.228 52.24 52.921 116.681 52.921 64.44 0 116.681-23.693 116.681-52.921v-11.478c0-3.715-.848-7.34-2.454-10.838-11.028 24.028-57.977 42.082-114.227 42.082z"/></symbol><symbol viewBox="0 0 16.877 16.877" id="phone" xmlns="http://www.w3.org/2000/svg"><path d="M5.301 5.587L1.404 1.688 2.913.177A.598.598 0 0 1 3.756.17l3.036 3.039a.6.6 0 0 1-.003.848l-.665.664-.619.619a1.705 1.705 0 0 0-.204.247zm3.206 6.351a34.186 34.186 0 0 1-1.844-1.725 34.655 34.655 0 0 1-1.724-1.848c-.45-.52-.538-1.273-.303-1.907l-4-4.001c-.931.957-.812 3.33.208 5.415.438.902 1.006 1.716 1.593 2.49a22.316 22.316 0 0 0 1.906 2.176 21.258 21.258 0 0 0 2.171 1.913c.774.589 1.59 1.153 2.486 1.59 2.088 1.019 4.462 1.131 5.418.199l-4.001-4.001c-.634.235-1.388.148-1.91-.301zm8.195 1.181l-3.036-3.037a.605.605 0 0 0-.848.003h-.002l-.667.666-.615.618a1.866 1.866 0 0 1-.247.205l3.896 3.898c.504-.505 1.007-1.007 1.512-1.51a.594.594 0 0 0 .007-.843z"/></symbol><symbol viewBox="0 0 432.232 432.232" id="refrigerator" xmlns="http://www.w3.org/2000/svg"><path d="M325.14 0H107.093c-8.284 0-15 6.716-15 15v96.8H340.14V15c0-8.284-6.717-15-15-15zM138.648 78.066a9 9 0 0 1-9 9 9 9 0 0 1-9-9V33.733a9 9 0 0 1 9-9 9 9 0 0 1 9 9v44.333zM92.093 397.5c0 8.284 6.716 15 15 15h19.023v5.398c0 7.916 6.418 14.334 14.334 14.334s14.333-6.418 14.333-14.334V412.5h122.666v5.398c0 7.916 6.418 14.334 14.334 14.334s14.334-6.418 14.334-14.334V412.5h19.023c8.283 0 15-6.716 15-15V141.8H92.093v255.7zm28.555-211.767a9 9 0 0 1 9-9 9 9 0 0 1 9 9v44.333a9 9 0 0 1-9 9 9 9 0 0 1-9-9v-44.333z"/></symbol><symbol viewBox="0 0 510.127 510.127" id="rub" xmlns="http://www.w3.org/2000/svg"><path d="M34.786 428.963h81.158v69.572c0 3.385 1.083 6.156 3.262 8.322 2.173 2.18 4.951 3.27 8.335 3.27h60.502c3.14 0 5.857-1.09 8.152-3.27 2.295-2.166 3.439-4.938 3.439-8.322v-69.572h182.964c3.377 0 6.156-1.076 8.334-3.256 2.18-2.178 3.262-4.951 3.262-8.336v-46.377c0-3.365-1.082-6.156-3.262-8.322-2.172-2.18-4.957-3.27-8.334-3.27h-182.97v-42.754h123.184c48.305 0 87.73-14.719 118.293-44.199 30.551-29.449 45.834-67.49 45.834-114.125 0-46.604-15.283-84.646-45.834-114.125C410.548 14.749 371.116 0 322.812 0H127.535c-3.385 0-6.157 1.089-8.335 3.256-2.173 2.179-3.262 4.969-3.262 8.335v227.896H34.786c-3.384 0-6.157 1.145-8.335 3.439-2.172 2.295-3.262 5.012-3.262 8.151v53.978c0 3.385 1.083 6.158 3.262 8.336 2.179 2.18 4.945 3.256 8.335 3.256h81.158v42.754H34.786c-3.384 0-6.157 1.09-8.335 3.27-2.172 2.166-3.262 4.951-3.262 8.322v46.377c0 3.385 1.083 6.158 3.262 8.336 2.178 2.181 4.95 3.257 8.335 3.257zM199.628 77.179h115.938c25.6 0 46.248 7.485 61.953 22.46 15.697 14.976 23.549 34.547 23.549 58.691 0 24.156-7.852 43.733-23.549 58.691-15.705 14.988-36.354 22.473-61.953 22.473H199.628V77.179z"/></symbol><symbol viewBox="0 0 480 480" id="soap" xmlns="http://www.w3.org/2000/svg"><path d="M457.432 384A47.235 47.235 0 0 0 464 360c-.031-26.497-21.503-47.969-48-48h-3.072a49.243 49.243 0 0 0-12.112 1.552A216.1 216.1 0 0 1 348.424 320h-24.848a217.144 217.144 0 0 1-52.856-6.568A48.192 48.192 0 0 0 259.072 312H256a46.8 46.8 0 0 0-16 2.88V240h-.408c-3.012-44.656-30.604-83.933-71.592-101.912V80h-24V48h24V32h48a8 8 0 0 1 8 8v16h16V40c0-13.255-10.745-24-24-24h-48V0H72v48h24v32H72v58.088C31.012 156.067 3.42 195.344.408 240H0v216c0 13.255 10.745 24 24 24h192a24 24 0 0 0 18.304-8.584A55.657 55.657 0 0 0 264 480h144c27.813-.033 51.387-20.473 55.36-48H480v-48h-22.568zm-226.168-44.21a31.42 31.42 0 0 1 5.56-5.23A31.664 31.664 0 0 1 256 328h3.072c2.778.01 5.544.37 8.232 1.072A232.409 232.409 0 0 0 323.576 336h24.848a233.399 233.399 0 0 0 56.736-7.04 31.925 31.925 0 0 1 7.76-.96H416c17.673 0 32 14.327 32 32a31.584 31.584 0 0 1-11.024 24H235.312c-13.326-11.09-15.138-30.884-4.048-44.21zM88 32V16h64v16H88zm40 16v32h-16V48h16zM88 96h64v32H88V96zm32 48c54.309.067 99.449 41.857 103.696 96H16.304c4.247-54.143 49.387-95.933 103.696-96zM16 256h208v68.408c-.2.184-.376.384-.568.568-.576.528-1.104 1.08-1.648 1.6a49.461 49.461 0 0 0-2.088 2.224 50.64 50.64 0 0 0-1.456 1.784c-.624.8-1.224 1.6-1.792 2.4a55.647 55.647 0 0 0-1.256 1.912 46.515 46.515 0 0 0-1.496 2.6c-.36.664-.704 1.32-1.032 2-.44.92-.8 1.856-1.208 2.8-.272.68-.552 1.344-.8 2.04-.344 1-.632 2.024-.912 3.048-.184.664-.392 1.328-.544 2.008-.256 1.144-.44 2.312-.616 3.48-.088.584-.208 1.152-.28 1.736a45.876 45.876 0 0 0 .088 11.352c.08.648.232 1.28.336 1.92.224 1.32.464 2.632.8 3.92.184.736.424 1.44.648 2.168a47.6 47.6 0 0 0 1.192 3.456c.288.728.608 1.44.928 2.152a47.014 47.014 0 0 0 1.6 3.2c.208.376.36.8.584 1.16H192v16H16V256zm200 208H24a8 8 0 0 1-8-8v-40h176v16h16.584c.056.392.192.8.256 1.16a55.529 55.529 0 0 0 1.248 5.6c.152.544.272 1.088.432 1.6a56.228 56.228 0 0 0 2.544 6.688c.224.488.488.952.728 1.44a56.216 56.216 0 0 0 2.816 5.064 55.917 55.917 0 0 0 5.52 7.512A7.997 7.997 0 0 1 216 464zm192 0H264a39.88 39.88 0 0 1-26.968-10.528 41.012 41.012 0 0 1-5.04-5.656c-.448-.6-.8-1.224-1.248-1.848a39.504 39.504 0 0 1-2.696-4.696c-.328-.68-.672-1.352-.96-2.048a39.05 39.05 0 0 1-2.032-6.312c-.056-.256-.16-.488-.216-.744V432H447.2c-3.827 18.611-20.199 31.976-39.2 32zm56-48H208v-16h256v16z"/><path d="M304 176c-26.51 0-48 21.49-48 48 .031 26.497 21.503 47.969 48 48 26.51 0 48-21.49 48-48s-21.49-48-48-48zm0 80c-17.673 0-32-14.327-32-32s14.327-32 32-32c17.673 0 32 14.327 32 32s-14.327 32-32 32zm88-24c-17.673 0-32 14.327-32 32 0 17.673 14.327 32 32 32 17.673 0 32-14.327 32-32 0-17.673-14.327-32-32-32zm0 48c-8.837 0-16-7.163-16-16s7.163-16 16-16 16 7.163 16 16-7.163 16-16 16zm0-120c-13.255 0-24 10.745-24 24s10.745 24 24 24 24-10.745 24-24-10.745-24-24-24zm0 32a8 8 0 1 1 0-16 8 8 0 0 1 0 16zM64 272h112v16H64zm32 32h48v16H96zm-16 32h80v16H80zm-16 32h48v16H64zm64 0h48v16h-48z"/></symbol><symbol viewBox="0 0 512 512" id="team" xmlns="http://www.w3.org/2000/svg"><path d="M451.72 237.26c-17.422-8.71-50.087-8.811-51.469-8.811a7.5 7.5 0 0 0 0 15c8.429.001 32.902 1.299 44.761 7.228a7.502 7.502 0 0 0 6.708-13.417z"/><path d="M489.112 344.041l-30.975-8.85a3.145 3.145 0 0 1-2.271-3.011v-10.339a56.368 56.368 0 0 0 7.171-5.881c10.89-10.568 16.887-24.743 16.887-39.915v-14.267l2.995-5.989a47.846 47.846 0 0 0 5.024-21.286v-38.65a7.5 7.5 0 0 0-7.5-7.5H408.27c-26.244 0-47.596 21.352-47.596 47.596v.447a39.78 39.78 0 0 0 4.178 17.699l3.841 7.682v12.25c0 19.414 9.567 36.833 24.058 47.315l.002 10.836c0 1.671 0 2.363-6.193 4.133l-15.114 4.318-43.721-15.898a7.491 7.491 0 0 0-2.044-5.742l-13.971-14.678v-24.64a90.427 90.427 0 0 0 4.344-3.789c17.625-16.52 27.733-39.844 27.733-63.991v-19.678c5.322-11.581 8.019-23.836 8.019-36.457v-80.19a7.5 7.5 0 0 0-7.5-7.5H232.037c-39.51 0-71.653 32.144-71.653 71.653v16.039c0 12.621 2.697 24.876 8.019 36.457v16.931c0 28.036 12.466 53.294 32.077 69.946v25.22l-13.971 14.678a7.491 7.491 0 0 0-2.044 5.742l-46.145 16.779a39.33 39.33 0 0 0-9.272 4.858l-7.246-3.623c21.57-9.389 28.403-22.594 28.731-23.25a7.498 7.498 0 0 0 0-6.708c-5.407-10.814-6.062-30.635-6.588-46.561-.175-5.302-.341-10.311-.658-14.771-2.557-35.974-29.905-63.103-63.615-63.103s-61.059 27.128-63.615 63.103c-.317 4.461-.483 9.47-.658 14.773-.526 15.925-1.182 35.744-6.588 46.558a7.498 7.498 0 0 0 0 6.708c.328.656 7.147 13.834 28.76 23.234l-20.127 10.063C6.684 358.176 0 368.991 0 381.02v55.409a7.5 7.5 0 0 0 15 0V381.02c0-6.312 3.507-11.987 9.152-14.81l25.063-12.531 8.718 8.285a31.466 31.466 0 0 0 21.739 8.688 31.475 31.475 0 0 0 21.739-8.688l8.717-8.284 8.172 4.086c-3.848 6.157-6.032 13.377-6.032 20.94v57.725a7.5 7.5 0 0 0 15 0v-57.725c0-10.296 6.501-19.578 16.178-23.097l48.652-17.691 20.253 30.381a15.462 15.462 0 0 0 11.383 6.835 15.458 15.458 0 0 0 12.504-4.47l12.356-12.356v78.124a7.5 7.5 0 0 0 15 0v-78.124l12.356 12.356a15.452 15.452 0 0 0 10.957 4.547c.513 0 1.029-.025 1.546-.076a15.462 15.462 0 0 0 11.384-6.835l20.254-30.38 48.651 17.691c9.676 3.519 16.178 12.801 16.178 23.097v57.725a7.5 7.5 0 0 0 15 0v-57.725c0-10.428-4.143-20.208-11.093-27.441l1.853-.529c1.869-.534 4.419-1.265 6.979-2.52l19.149 19.149v69.066a7.5 7.5 0 0 0 15 0v-69.066l19.016-19.016c1.011.514 2.073.948 3.191 1.267l30.976 8.85c7.07 2.02 12.009 8.567 12.009 15.921v62.044a7.5 7.5 0 0 0 15 0v-62.044c0-14.018-9.412-26.497-22.888-30.348zM48.115 330.794c-14.029-5.048-21.066-11.778-24.07-15.453 2.048-5.354 3.376-11.486 4.275-17.959 4.136 9.917 11.063 18.383 19.795 24.423v8.989zm42.965 20.298c-6.397 6.078-16.418 6.077-22.813-.001l-6.975-6.628a15.518 15.518 0 0 0 1.824-7.324v-7.994a55.427 55.427 0 0 0 16.558 2.517c5.757 0 11.316-.886 16.557-2.512l-.001 7.988c0 2.62.646 5.121 1.824 7.327l-6.974 6.627zm-11.404-34.43c-22.396 0-40.615-18.22-40.615-40.615a7.5 7.5 0 0 0-7.5-7.5c-.42 0-.83.043-1.231.11l.065-1.93c.167-5.157.328-10.028.625-14.206.958-13.476 6.343-25.894 15.163-34.968 8.899-9.156 20.793-14.198 33.491-14.198s24.591 5.042 33.491 14.198c8.82 9.074 14.205 21.492 15.163 34.968.296 4.177.458 9.047.628 14.203l.045 1.338c-8.16-12.572-20.762-21.837-37.045-27.069-15.043-4.833-27.981-4.534-28.527-4.52a7.5 7.5 0 0 0-5.191 2.291l-13.532 14.034a7.5 7.5 0 1 0 10.798 10.412l11.26-11.677c9.697.474 40.894 4.102 53.027 30.819-3.053 19.688-19.975 34.31-40.115 34.31zm31.553 14.157l.001-8.945a55.477 55.477 0 0 0 19.801-24.449c.899 6.458 2.226 12.576 4.27 17.918-2.987 3.64-10.057 10.43-24.072 15.476zm72.174-121.674v-18.608a7.501 7.501 0 0 0-.746-3.261c-4.826-9.994-7.273-20.598-7.273-31.518V139.72c0-31.239 25.415-56.653 56.653-56.653h104.769v72.692c0 10.92-2.447 21.524-7.273 31.518a7.501 7.501 0 0 0-.746 3.261v21.355c0 20.311-8.165 39.15-22.991 53.047a74.636 74.636 0 0 1-5.758 4.875c-.044.03-.086.063-.129.094-13.889 10.545-30.901 15.67-48.667 14.519-38.041-2.463-67.839-35.531-67.839-75.283zm42.229 150.911c-.052.052-.173.175-.418.149a.477.477 0 0 1-.381-.229l-23.325-34.988 7.506-7.887 35.385 24.187-18.767 18.768zm30.463-28.943l-40.615-27.762v-14c10.509 5.681 22.276 9.234 34.791 10.044 1.977.128 3.942.191 5.901.191 14.341 0 28.143-3.428 40.538-9.935v13.7l-40.615 27.762zm31.262 28.865a.477.477 0 0 1-.381.229c-.245.031-.365-.098-.418-.149l-18.767-18.767 35.385-24.188 7.507 7.887-23.326 34.988zm136.951-6.328l-17.02-17.019c.297-1.349.465-2.826.464-4.455l-.001-3.165a52.589 52.589 0 0 0 16.579 2.65 55.71 55.71 0 0 0 16.536-2.501v3.02c0 1.496.188 2.962.542 4.371l-17.1 17.099zm28.283-48.454c-7.949 7.714-18.45 11.788-29.537 11.446-21.704-.651-39.361-19.768-39.361-42.613v-14.021a7.493 7.493 0 0 0-.792-3.354l-4.633-9.266a24.706 24.706 0 0 1-2.594-10.991v-.447c0-17.974 14.623-32.596 32.596-32.596h64.673v31.15a32.77 32.77 0 0 1-3.441 14.578l-3.786 7.572a7.496 7.496 0 0 0-.792 3.354v16.038c0 11.08-4.38 21.432-12.333 29.15z"/><path d="M472.423 380.814a7.5 7.5 0 0 0-7.5 7.5v48.115a7.5 7.5 0 0 0 15 0v-48.115a7.5 7.5 0 0 0-7.5-7.5zm-432.846 9.914a7.5 7.5 0 0 0-7.5 7.5v38.201a7.5 7.5 0 0 0 15 0v-38.201a7.5 7.5 0 0 0-7.5-7.5zm277.955-232.253c-28.366-28.366-87.715-22.943-111.917-19.295-7.623 1.149-13.155 7.6-13.155 15.339v17.278a7.5 7.5 0 0 0 15 0v-17.279c0-.255.168-.473.392-.507 9.667-1.457 28.85-3.705 48.725-2.38 23.388 1.557 40.328 7.428 50.349 17.45a7.5 7.5 0 0 0 10.606 0 7.5 7.5 0 0 0 0-10.606zM167.884 396.853a7.5 7.5 0 0 0-7.5 7.5v32.077a7.5 7.5 0 0 0 15 0v-32.077a7.5 7.5 0 0 0-7.5-7.5zm176.422 0a7.5 7.5 0 0 0-7.5 7.5v32.077a7.5 7.5 0 0 0 15 0v-32.077a7.5 7.5 0 0 0-7.5-7.5z"/></symbol><symbol viewBox="0 0 452.388 452.388" id="tv" xmlns="http://www.w3.org/2000/svg"><path d="M441.677 43.643H10.687C4.785 43.643 0 48.427 0 54.329v297.425c0 5.898 4.785 10.676 10.687 10.676h162.069v25.631c0 .38.074.722.112 1.089h-23.257c-5.407 0-9.796 4.389-9.796 9.795 0 5.408 4.389 9.801 9.796 9.801h158.506c5.406 0 9.795-4.389 9.795-9.801 0-5.406-4.389-9.795-9.795-9.795h-23.256c.032-.355.115-.709.115-1.089V362.43H441.7c5.898 0 10.688-4.782 10.688-10.676V54.329c-.018-5.902-4.799-10.686-10.711-10.686zm-19.588 261.49c0 5.903-4.784 10.687-10.683 10.687H40.96c-5.898 0-10.684-4.783-10.684-10.687V79.615c0-5.898 4.786-10.684 10.684-10.684h370.446c5.898 0 10.683 4.785 10.683 10.684v225.518z"/></symbol><symbol viewBox="0 0 304.36 304.36" id="vk" xmlns="http://www.w3.org/2000/svg"><path d="M261.945 175.576c10.096 9.857 20.752 19.131 29.807 29.982 4 4.822 7.787 9.798 10.684 15.394 4.105 7.955.387 16.709-6.746 17.184l-44.34-.02c-11.436.949-20.559-3.655-28.23-11.474-6.139-6.253-11.824-12.908-17.727-19.372-2.42-2.642-4.953-5.128-7.979-7.093-6.053-3.929-11.307-2.726-14.766 3.587-3.523 6.421-4.322 13.531-4.668 20.687-.475 10.441-3.631 13.186-14.119 13.664-22.414 1.057-43.686-2.334-63.447-13.641-17.422-9.968-30.932-24.04-42.691-39.971-22.895-31.021-40.428-65.108-56.186-100.15C-2.01 76.458.584 72.22 9.295 72.07c14.465-.281 28.928-.261 43.41-.02 5.879.086 9.771 3.458 12.041 9.012 7.826 19.243 17.402 37.551 29.422 54.521 3.201 4.518 6.465 9.036 11.113 12.216 5.142 3.521 9.057 2.354 11.476-3.374 1.535-3.632 2.207-7.544 2.553-11.434 1.146-13.383 1.297-26.743-.713-40.079-1.234-8.323-5.922-13.711-14.227-15.286-4.238-.803-3.607-2.38-1.555-4.799 3.564-4.172 6.916-6.769 13.598-6.769h50.111c7.889 1.557 9.641 5.101 10.721 13.039l.043 55.663c-.086 3.073 1.535 12.192 7.07 14.226 4.43 1.448 7.35-2.096 10.008-4.905 11.998-12.734 20.561-27.783 28.211-43.366 3.395-6.852 6.314-13.968 9.143-21.078 2.096-5.276 5.385-7.872 11.328-7.757l48.229.043c1.43 0 2.877.021 4.262.258 8.127 1.385 10.354 4.881 7.844 12.817-3.955 12.451-11.65 22.827-19.174 33.251-8.043 11.129-16.645 21.877-24.621 33.072-7.328 10.223-6.746 15.376 2.357 24.255zm0 0" fill-rule="evenodd" clip-rule="evenodd"/></symbol><symbol viewBox="0 0 404.242 404.242" id="washing" xmlns="http://www.w3.org/2000/svg"><circle cx="64.029" cy="59.148" r="9.924"/><circle cx="95.873" cy="59.148" r="9.924"/><circle cx="276.525" cy="59.148" r="9.924"/><circle cx="308.369" cy="59.148" r="9.924"/><circle cx="340.213" cy="59.148" r="9.924"/><path d="M202.121 329.305c48.353 0 87.689-39.337 87.689-87.689 0-48.352-39.337-87.689-87.689-87.689-48.352 0-87.69 39.337-87.69 87.689.001 48.351 39.338 87.689 87.69 87.689zm0-157.434c38.518 0 69.742 31.227 69.742 69.744 0 .511-.027 1.015-.039 1.522-3.096 2.583-6.671 4.867-12.798 4.867-7.296 0-10.977-3.235-14.534-6.361-3.541-3.114-6.886-6.054-13.714-6.054s-10.172 2.94-13.712 6.054c-3.558 3.126-7.236 6.361-14.532 6.361-7.293 0-10.972-3.235-14.529-6.361-3.54-3.114-6.886-6.054-13.71-6.054-6.826 0-10.172 2.94-13.712 6.052-3.556 3.128-7.236 6.363-14.531 6.363-6.698 0-10.346-2.729-13.653-5.595-.003-.266-.02-.528-.02-.795 0-38.516 31.224-69.743 69.742-69.743z"/><path d="M31.797 404.242h340.648V78.988H31.797v325.254zm170.324-270.316c59.38 0 107.689 48.309 107.689 107.689 0 59.38-48.31 107.689-107.689 107.689-59.38 0-107.69-48.309-107.69-107.689.001-59.38 48.31-107.689 107.69-107.689zM31.797 0h340.648v35H31.797z"/></symbol><symbol viewBox="0 0 489.3 489.3" id="wifi" xmlns="http://www.w3.org/2000/svg"><path d="M79.55 229.675c-10.2 10.2-10.2 26.8 0 37.1 10.2 10.2 26.8 10.2 37.1 0 70.6-70.6 185.5-70.6 256.1 0 5.1 5.1 11.8 7.7 18.5 7.7s13.4-2.6 18.5-7.7c10.2-10.2 10.2-26.8 0-37.1-91-91.1-239.2-91.1-330.2 0z"/><path d="M150.35 300.475c-10.2 10.2-10.2 26.8 0 37.1 10.2 10.2 26.8 10.2 37.1 0 31.5-31.6 82.9-31.6 114.4 0 5.1 5.1 11.8 7.7 18.5 7.7s13.4-2.6 18.5-7.7c10.2-10.2 10.2-26.8 0-37-51.9-52.1-136.5-52.1-188.5-.1z"/><circle cx="244.65" cy="394.675" r="34.9"/><path d="M481.65 157.675c-130.7-130.6-343.3-130.6-474 0-10.2 10.2-10.2 26.8 0 37.1 10.2 10.2 26.8 10.2 37.1 0 110.2-110.3 289.6-110.3 399.9 0 5.1 5.1 11.8 7.7 18.5 7.7s13.4-2.6 18.5-7.7c10.2-10.2 10.2-26.8 0-37.1z"/></symbol></svg>